<svg width="694" height="717" viewBox="0 0 694 717" fill="none" xmlns="http://www.w3.org/2000/svg">
<g clip-path="url(#clip0_57_29)">
<path d="M163.293 644.682V625.273H240.409V644.682H213.722V714H189.98V644.682H163.293ZM272.23 715.213C265.01 715.213 258.829 713.783 253.688 710.924C248.547 708.036 244.604 704.021 241.86 698.88C239.117 693.71 237.745 687.717 237.745 680.901C237.745 674.084 239.117 668.106 241.86 662.964C244.604 657.795 248.547 653.78 253.688 650.92C258.829 648.032 265.01 646.588 272.23 646.588C279.451 646.588 285.632 648.032 290.773 650.92C295.914 653.78 299.857 657.795 302.601 662.964C305.344 668.106 306.716 674.084 306.716 680.901C306.716 687.717 305.344 693.71 302.601 698.88C299.857 704.021 295.914 708.036 290.773 710.924C285.632 713.783 279.451 715.213 272.23 715.213ZM272.404 697.537C274.426 697.537 276.173 696.858 277.646 695.501C279.119 694.143 280.26 692.208 281.069 689.695C281.877 687.183 282.282 684.193 282.282 680.727C282.282 677.232 281.877 674.243 281.069 671.759C280.26 669.246 279.119 667.311 277.646 665.954C276.173 664.596 274.426 663.918 272.404 663.918C270.266 663.918 268.432 664.596 266.902 665.954C265.371 667.311 264.201 669.246 263.392 671.759C262.584 674.243 262.179 677.232 262.179 680.727C262.179 684.193 262.584 687.183 263.392 689.695C264.201 692.208 265.371 694.143 266.902 695.501C268.432 696.858 270.266 697.537 272.404 697.537ZM280.722 639.483L272.23 629.952L263.739 639.483H243.983V638.963L263.912 619.207H280.549L300.478 638.963V639.483H280.722ZM316.074 714V625.273H340.162V694.591H376.034V714H316.074ZM386.118 714V647.455H410.033V714H386.118ZM398.075 640.523C394.841 640.523 392.068 639.454 389.757 637.317C387.447 635.179 386.291 632.609 386.291 629.605C386.291 626.601 387.447 624.031 389.757 621.893C392.068 619.756 394.841 618.688 398.075 618.688C401.339 618.688 404.112 619.756 406.394 621.893C408.704 624.031 409.86 626.601 409.86 629.605C409.86 632.609 408.704 635.179 406.394 637.317C404.112 639.454 401.339 640.523 398.075 640.523ZM489.283 647.455L466.928 714H439.201L416.846 647.455H441.973L452.718 691.472H453.411L464.155 647.455H489.283ZM496.085 714V647.455H519.306V660.105H520C521.213 655.426 523.133 652.004 525.762 649.837C528.419 647.671 531.524 646.588 535.076 646.588C536.116 646.588 537.141 646.675 538.152 646.848C539.192 646.992 540.189 647.209 541.142 647.498V667.903C539.958 667.499 538.499 667.196 536.766 666.994C535.033 666.791 533.546 666.69 532.304 666.69C529.964 666.69 527.856 667.225 525.978 668.293C524.13 669.333 522.671 670.806 521.603 672.712C520.534 674.59 520 676.799 520 679.341V714H496.085ZM577.057 715.213C569.952 715.213 563.829 713.856 558.688 711.141C553.576 708.397 549.633 704.469 546.86 699.357C544.117 694.215 542.745 688.063 542.745 680.901C542.745 674.027 544.131 668.019 546.904 662.878C549.676 657.737 553.59 653.737 558.645 650.877C563.699 648.018 569.663 646.588 576.537 646.588C581.563 646.588 586.112 647.368 590.184 648.928C594.257 650.487 597.737 652.754 600.625 655.729C603.514 658.675 605.738 662.257 607.297 666.474C608.857 670.691 609.637 675.442 609.637 680.727V686.273H550.196V673.102H587.628C587.599 671.196 587.108 669.521 586.155 668.077C585.231 666.604 583.975 665.463 582.386 664.654C580.826 663.817 579.05 663.398 577.057 663.398C575.122 663.398 573.346 663.817 571.728 664.654C570.111 665.463 568.811 666.589 567.829 668.033C566.876 669.478 566.371 671.167 566.313 673.102V687.312C566.313 689.45 566.761 691.356 567.656 693.031C568.551 694.706 569.837 696.021 571.512 696.974C573.187 697.927 575.209 698.403 577.577 698.403C579.223 698.403 580.725 698.172 582.083 697.71C583.469 697.248 584.653 696.584 585.635 695.717C586.617 694.822 587.339 693.753 587.801 692.511H609.637C608.886 697.133 607.109 701.147 604.308 704.555C601.506 707.935 597.795 710.563 593.174 712.44C588.581 714.289 583.209 715.213 577.057 715.213Z" fill="white"/>
<path d="M312.254 589.3C300.702 594.424 290.098 580.511 298.102 570.73L522.745 296.236C524.221 294.433 526.188 293.099 528.409 292.396L675.669 245.761C686.708 242.265 695.806 254.887 689 264.255L521.595 494.669C520.353 496.378 518.683 497.728 516.752 498.585L312.254 589.3Z" fill="white"/>
<path d="M107.554 273.638C104.954 272.688 102.763 270.869 101.351 268.488L5.17048 106.326C-0.935641 96.0304 10.142 84.1212 20.8514 89.4674L452.031 304.717C458.95 308.171 460.843 317.172 455.902 323.121L411.752 376.278C408.512 380.18 403.168 381.623 398.404 379.883L107.554 273.638Z" fill="white"/>
<path d="M201.227 438.866C198.717 437.893 196.607 436.105 195.236 433.789L138.613 338.137C132.881 328.454 142.429 316.917 153.013 320.737L371.023 399.42C378.813 402.232 381.481 411.904 376.233 418.311L326.806 478.66C323.519 482.674 318.025 484.121 313.187 482.246L201.227 438.866Z" fill="white"/>
</g>
<defs>
<clipPath id="clip0_57_29">
<rect width="694" height="717" fill="white"/>
</clipPath>
</defs>
</svg>
