<svg width="1000" height="1000" viewBox="0 0 1000 1000" fill="none" xmlns="http://www.w3.org/2000/svg">
<path d="M500 212.195C619.186 212.195 715.805 308.814 715.805 428C715.804 547.185 619.185 643.804 500 643.804C380.815 643.804 284.196 547.185 284.195 428C284.195 308.814 380.814 212.195 500 212.195ZM500 252.345C402.989 252.345 324.346 330.989 324.346 428C324.346 525.011 402.989 603.654 500 603.654C597.011 603.654 675.655 525.011 675.655 428C675.655 330.989 597.011 252.345 500 252.345Z" fill="white"/>
<rect x="428.926" y="389.807" width="43.0175" height="100.375" rx="21.5088" transform="rotate(-46 428.926 389.807)" fill="white"/>
<rect x="698.828" y="266.587" width="43.0175" height="64.794" rx="21.5088" transform="rotate(56 698.828 266.587)" fill="white"/>
<path d="M537.479 215.474C654.854 236.171 733.228 348.1 712.531 465.474C691.835 582.849 579.906 661.222 462.531 640.525C345.157 619.829 266.783 507.901 287.479 390.526C308.175 273.151 420.104 194.778 537.479 215.474ZM530.505 255.013C434.968 238.167 343.862 301.96 327.017 397.498C310.171 493.035 373.964 584.14 469.501 600.986C565.039 617.831 656.143 554.039 672.989 458.502C689.835 362.964 626.043 271.859 530.505 255.013Z" fill="white"/>
<path d="M583.84 347.226C593.688 340.584 607.057 343.182 613.699 353.03C620.342 362.878 617.743 376.247 607.895 382.889L512.868 446.986C503.02 453.629 489.652 451.03 483.009 441.182C476.367 431.334 478.965 417.966 488.813 411.323L583.84 347.226Z" fill="white"/>
<path d="M283.75 723.706V706.575H357.514V723.706H331.051V793.848H310.256V723.706H283.75ZM388.878 795.083C382.003 795.083 376.094 793.677 371.151 790.865C366.236 788.024 362.443 784.075 359.773 779.018C357.131 773.933 355.81 768.038 355.81 761.333C355.81 754.6 357.131 748.706 359.773 743.649C362.443 738.564 366.236 734.615 371.151 731.802C376.094 728.961 382.003 727.541 388.878 727.541C395.753 727.541 401.648 728.961 406.562 731.802C411.506 734.615 415.298 738.564 417.94 743.649C420.611 748.706 421.946 754.6 421.946 761.333C421.946 768.038 420.611 773.933 417.94 779.018C415.298 784.075 411.506 788.024 406.562 790.865C401.648 793.677 395.753 795.083 388.878 795.083ZM389.006 779.359C391.506 779.359 393.622 778.592 395.355 777.058C397.088 775.524 398.409 773.393 399.318 770.666C400.256 767.939 400.724 764.785 400.724 761.206C400.724 757.569 400.256 754.387 399.318 751.66C398.409 748.933 397.088 746.802 395.355 745.268C393.622 743.734 391.506 742.967 389.006 742.967C386.42 742.967 384.233 743.734 382.443 745.268C380.682 746.802 379.332 748.933 378.395 751.66C377.486 754.387 377.031 757.569 377.031 761.206C377.031 764.785 377.486 767.939 378.395 770.666C379.332 773.393 380.682 775.524 382.443 777.058C384.233 778.592 386.42 779.359 389.006 779.359ZM397.358 720.552L388.878 710.666L380.44 720.552H362.969V719.998L381.42 700.907H396.378L414.787 719.998V720.552H397.358ZM432.621 793.848V706.575H453.714V776.717H490.021V793.848H432.621ZM500.941 793.848V728.393H521.779V793.848H500.941ZM511.381 720.765C508.455 720.765 505.941 719.799 503.839 717.868C501.737 715.907 500.685 713.549 500.685 710.794C500.685 708.066 501.737 705.737 503.839 703.805C505.941 701.845 508.455 700.865 511.381 700.865C514.336 700.865 516.85 701.845 518.924 703.805C521.026 705.737 522.077 708.066 522.077 710.794C522.077 713.549 521.026 715.907 518.924 717.868C516.85 719.799 514.336 720.765 511.381 720.765ZM598.537 728.393L576.08 793.848H552.216L529.801 728.393H551.747L563.807 773.478H564.489L576.591 728.393H598.537ZM606.527 793.848V728.393H626.768V740.325H627.45C628.643 736.007 630.589 732.797 633.288 730.694C635.987 728.564 639.126 727.498 642.706 727.498C643.672 727.498 644.666 727.569 645.689 727.711C646.712 727.825 647.663 728.01 648.544 728.265V746.376C647.55 746.035 646.243 745.765 644.624 745.566C643.033 745.368 641.612 745.268 640.362 745.268C637.891 745.268 635.661 745.822 633.672 746.93C631.712 748.01 630.163 749.529 629.027 751.49C627.919 753.422 627.365 755.694 627.365 758.308V793.848H606.527ZM684.233 795.083C677.386 795.083 671.477 793.734 666.506 791.035C661.563 788.308 657.756 784.43 655.085 779.402C652.443 774.345 651.122 768.336 651.122 761.376C651.122 754.615 652.457 748.706 655.128 743.649C657.798 738.564 661.562 734.615 666.42 731.802C671.278 728.961 677.003 727.541 683.594 727.541C688.253 727.541 692.514 728.265 696.378 729.714C700.241 731.163 703.58 733.308 706.392 736.149C709.205 738.99 711.392 742.498 712.955 746.674C714.517 750.822 715.298 755.581 715.298 760.95V766.149H658.409V754.047H695.909C695.881 751.831 695.355 749.856 694.332 748.123C693.31 746.39 691.903 745.041 690.114 744.075C688.352 743.081 686.321 742.583 684.02 742.583C681.69 742.583 679.602 743.109 677.756 744.16C675.909 745.183 674.446 746.589 673.366 748.379C672.287 750.14 671.719 752.143 671.662 754.387V766.703C671.662 769.373 672.188 771.717 673.239 773.734C674.29 775.723 675.781 777.271 677.713 778.379C679.645 779.487 681.946 780.041 684.616 780.041C686.463 780.041 688.139 779.785 689.645 779.274C691.151 778.762 692.443 778.01 693.523 777.015C694.602 776.021 695.412 774.799 695.952 773.35L715.085 773.904C714.29 778.194 712.543 781.93 709.844 785.112C707.173 788.265 703.665 790.723 699.318 792.484C694.972 794.217 689.943 795.083 684.233 795.083Z" fill="white"/>
</svg>
