<svg width="350" height="350" viewBox="0 0 350 350" fill="none" xmlns="http://www.w3.org/2000/svg">
<path d="M175.5 25C258.619 25 326 92.3811 326 175.5C326 258.619 258.619 326 175.5 326C92.3811 326 25 258.619 25 175.5C25 92.3811 92.3811 25 175.5 25ZM175.5 53C107.845 53 53 107.845 53 175.5C53 243.155 107.845 298 175.5 298C243.155 298 298 243.155 298 175.5C298 107.845 243.155 53 175.5 53Z" fill="#0D542B"/>
<rect x="122.34" y="145.394" width="30" height="74.9965" rx="15" transform="rotate(-46 122.34 145.394)" fill="#0D542B"/>
<rect x="312.35" y="64.1538" width="30" height="43.0028" rx="15" transform="rotate(56 312.35 64.1538)" fill="#0D542B"/>
<path d="M201.635 27.2864C283.492 41.7198 338.148 119.778 323.715 201.634C309.282 283.49 231.223 338.147 149.367 323.714C67.5112 309.28 12.8544 231.222 27.2878 149.366C41.7213 67.5098 119.779 12.853 201.635 27.2864ZM196.773 54.861C130.146 43.1129 66.6106 87.601 54.8624 154.228C43.1143 220.855 87.6024 284.391 154.229 296.139C220.857 307.887 284.392 263.399 296.14 196.772C307.888 130.145 263.4 66.6092 196.773 54.861Z" fill="#0D542B"/>
<path d="M238.988 115.78C245.856 111.148 255.179 112.96 259.812 119.828C264.444 126.696 262.632 136.019 255.764 140.652L184.471 188.74C177.603 193.372 168.28 191.56 163.647 184.692C159.015 177.824 160.827 168.501 167.695 163.868L238.988 115.78Z" fill="#0D542B"/>
<circle cx="176" cy="176" r="12" fill="#0D542B"/>
</svg>
