<svg width="885" height="859" viewBox="0 0 885 859" fill="none" xmlns="http://www.w3.org/2000/svg">
<path d="M386.587 728.3C375.034 733.424 364.43 719.511 372.434 709.73L597.077 435.236C598.553 433.433 600.52 432.099 602.741 431.395L750.001 384.761C761.04 381.265 770.138 393.887 763.332 403.255L595.927 633.669C594.685 635.377 593.015 636.728 591.084 637.585L386.587 728.3Z" fill="#1AC897"/>
<path d="M181.886 412.638C179.286 411.688 177.095 409.869 175.683 407.488L79.5025 245.325C73.3964 235.03 84.4741 223.121 95.1835 228.467L526.363 443.717C533.282 447.171 535.175 456.172 530.234 462.121L486.084 515.278C482.844 519.18 477.5 520.623 472.736 518.883L181.886 412.638Z" fill="#1AC897"/>
<path d="M275.559 577.865C273.049 576.893 270.939 575.105 269.568 572.789L212.945 477.137C207.213 467.454 216.761 455.917 227.345 459.737L445.355 538.42C453.145 541.232 455.813 550.903 450.565 557.311L401.138 617.66C397.851 621.674 392.357 623.12 387.519 621.246L275.559 577.865Z" fill="#1AC897"/>
</svg>
