<svg width="640" height="495" viewBox="0 0 640 495" fill="none" xmlns="http://www.w3.org/2000/svg">
<path d="M499.136 204.013C474.336 213.421 417.296 249.569 392 364.451C406.384 386.239 441.426 430.557 462.432 421.892C508.56 402.863 537.328 367.705 534.848 366.22C533.856 363.744 519.571 364.451 498.144 364.451C471.36 364.451 444.08 383.268 462.432 369.403C480.784 355.538 486.736 352.071 537.824 343.158C597.84 332.687 621.648 258.228 604.784 266.901C591.69 273.635 533.856 282.251 506.576 285.717C512.363 281.921 531.574 271.159 562.128 258.483C600.32 242.637 626.233 215.402 637.024 174.797C643.472 150.534 638.016 126.27 634.048 133.202C630.874 138.748 542.784 182.72 499.136 204.013Z" fill="url(#paint0_linear_109_2)"/>
<path fill-rule="evenodd" clip-rule="evenodd" d="M458 226.979L457.952 225.841L457.146 226.646C445.398 238.395 436.985 246.931 429.076 259.547C421.418 271.763 414.244 287.787 404.936 314.242L404.027 316.836C399.238 330.59 396.528 341.032 395.456 348.581C394.92 352.355 394.79 355.424 395.021 357.831C395.252 360.229 395.847 362.026 396.809 363.2C397.794 364.403 399.127 364.902 400.679 364.771C402.2 364.641 403.923 363.909 405.776 362.693C409.489 360.259 413.895 355.775 418.542 349.714C435.584 327.483 456.23 283.526 458 239.072V432C458 466.794 429.794 495 395 495H63C28.2061 495 6.52399e-07 466.794 0 432V140H458V226.979ZM350.13 171.979C343.491 165.34 332.728 165.34 326.089 171.979L193.808 304.26L132.335 242.787C125.696 236.149 114.933 236.149 108.294 242.787L95.9785 255.103C89.34 261.741 89.3402 272.505 95.9785 279.144L167.807 350.973C168.275 351.592 168.792 352.187 169.356 352.752L181.671 365.067C188.31 371.706 199.074 371.706 205.713 365.067L362.445 208.335C369.084 201.696 369.084 190.932 362.445 184.293L350.13 171.979Z" fill="url(#paint1_linear_109_2)"/>
<path d="M99 20C99 8.95431 107.954 0 119 0H128C139.046 0 148 8.9543 148 20V78C148 89.0457 139.046 98 128 98H119C107.954 98 99 89.0457 99 78V20Z" fill="url(#paint2_linear_109_2)"/>
<path d="M320 20C320 8.95431 328.954 0 340 0H349C360.046 0 369 8.9543 369 20V78C369 89.0457 360.046 98 349 98H340C328.954 98 320 89.0457 320 78V20Z" fill="url(#paint3_linear_109_2)"/>
<path d="M392 230.49C392 205.919 392.183 186 392.408 186H392.592C392.817 186 393 205.919 393 230.49V359.51C393 384.081 392.817 404 392.592 404H392.408C392.183 404 392 384.081 392 359.51V230.49Z" fill="url(#paint4_linear_109_2)"/>
<path d="M95 80.5C95 93.4787 105.521 104 118.5 104H128.5C141.479 104 152 93.4787 152 80.5V45H316V80.5C316 93.4787 326.521 104 339.5 104H349.5C362.479 104 373 93.4787 373 80.5V45H395C429.794 45 458 73.2061 458 108V143H0V108C0 73.2061 28.2061 45 63 45H95V80.5Z" fill="url(#paint5_linear_109_2)"/>
<defs>
<linearGradient id="paint0_linear_109_2" x1="5.58051e-06" y1="248" x2="640" y2="248" gradientUnits="userSpaceOnUse">
<stop stop-color="#1AC897"/>
<stop offset="1" stop-color="#155DFC"/>
</linearGradient>
<linearGradient id="paint1_linear_109_2" x1="5.58051e-06" y1="248" x2="640" y2="248" gradientUnits="userSpaceOnUse">
<stop stop-color="#1AC897"/>
<stop offset="1" stop-color="#155DFC"/>
</linearGradient>
<linearGradient id="paint2_linear_109_2" x1="5.58051e-06" y1="248" x2="640" y2="248" gradientUnits="userSpaceOnUse">
<stop stop-color="#1AC897"/>
<stop offset="1" stop-color="#155DFC"/>
</linearGradient>
<linearGradient id="paint3_linear_109_2" x1="5.58051e-06" y1="248" x2="640" y2="248" gradientUnits="userSpaceOnUse">
<stop stop-color="#1AC897"/>
<stop offset="1" stop-color="#155DFC"/>
</linearGradient>
<linearGradient id="paint4_linear_109_2" x1="5.58051e-06" y1="248" x2="640" y2="248" gradientUnits="userSpaceOnUse">
<stop stop-color="#1AC897"/>
<stop offset="1" stop-color="#155DFC"/>
</linearGradient>
<linearGradient id="paint5_linear_109_2" x1="5.58051e-06" y1="248" x2="640" y2="248" gradientUnits="userSpaceOnUse">
<stop stop-color="#1AC897"/>
<stop offset="1" stop-color="#155DFC"/>
</linearGradient>
</defs>
</svg>
